P2
6 7
255
0 10 100 50 30 30
0 40 100 50 30 30
0 40 100 100 200 30
0 200 100 50 30 200
0 40 100 50 30 30
0 40 100 50 30 30
0 40 100 40 30 30

