P2
6 7
255
0 10 20 20 20 10
0 40 50 50 40 10
5 40 100 100 40 10
5 40 100 50 40 30
5 40 50 50 50 30
20 20 40 50 50 30
20 20 20 40 30 50
